<svg xmlns="http://www.w3.org/2000/svg" width="960" height="540">
<rect width="100%" height="100%" fill="#fffdf7"/>
<text x="480.0" y="26" text-anchor="middle" font-size="20" font-family="sans-serif">Range Query Throughput Speedup (Index / Heap, Cold Cache)</text>
<text x="24" y="270.0" transform="rotate(-90 24,270.0)" text-anchor="middle" font-size="12" font-family="sans-serif">speedup (x)</text>
<line x1="90" y1="50" x2="90" y2="460" stroke="#222" stroke-width="1"/>
<line x1="90" y1="460" x2="920" y2="460" stroke="#222" stroke-width="1"/>
<line x1="85" y1="460.0" x2="920" y2="460.0" stroke="#ece7db"/>
<text x="80" y="464.0" text-anchor="end" font-size="11" font-family="sans-serif">0.0x</text>
<line x1="85" y1="378.0" x2="920" y2="378.0" stroke="#ece7db"/>
<text x="80" y="382.0" text-anchor="end" font-size="11" font-family="sans-serif">40.2x</text>
<line x1="85" y1="296.0" x2="920" y2="296.0" stroke="#ece7db"/>
<text x="80" y="300.0" text-anchor="end" font-size="11" font-family="sans-serif">80.3x</text>
<line x1="85" y1="214.0" x2="920" y2="214.0" stroke="#ece7db"/>
<text x="80" y="218.0" text-anchor="end" font-size="11" font-family="sans-serif">120.5x</text>
<line x1="85" y1="132.0" x2="920" y2="132.0" stroke="#ece7db"/>
<text x="80" y="136.0" text-anchor="end" font-size="11" font-family="sans-serif">160.7x</text>
<line x1="85" y1="50.0" x2="920" y2="50.0" stroke="#ece7db"/>
<text x="80" y="54.0" text-anchor="end" font-size="11" font-family="sans-serif">200.8x</text>
<rect x="108.00" y="277.57" width="168.47" height="182.43" fill="#2a9d8f"/>
<text x="192.23" y="271.57" text-anchor="middle" font-size="10" font-family="sans-serif">89.4x</text>
<text x="192.23" y="476" text-anchor="middle" font-size="10" font-family="sans-serif">Speedup</text>
<text x="228.33" y="522" text-anchor="middle" font-size="12" font-family="sans-serif">compare_quick
10000 rec</text>
<rect x="384.67" y="64.10" width="168.47" height="395.90" fill="#2a9d8f"/>
<text x="468.90" y="58.10" text-anchor="middle" font-size="10" font-family="sans-serif">193.9x</text>
<text x="468.90" y="476" text-anchor="middle" font-size="10" font-family="sans-serif">Speedup</text>
<text x="505.00" y="522" text-anchor="middle" font-size="12" font-family="sans-serif">compare_dev
50000 rec</text>
<rect x="661.33" y="50.00" width="168.47" height="410.00" fill="#2a9d8f"/>
<text x="745.57" y="44.00" text-anchor="middle" font-size="10" font-family="sans-serif">200.8x</text>
<text x="745.57" y="476" text-anchor="middle" font-size="10" font-family="sans-serif">Speedup</text>
<text x="781.67" y="522" text-anchor="middle" font-size="12" font-family="sans-serif">compare_large
100000 rec</text>
<rect x="740" y="31" width="12" height="12" fill="#2a9d8f"/>
<text x="758" y="41" font-size="12" font-family="sans-serif">Speedup</text>
</svg>